<svg id="visual" viewBox="0 0 900 900" width="900" height="900" xmlns="http://www.w3.org/2000/svg" xmlns:xlink="http://www.w3.org/1999/xlink" version="1.1"><rect x="0" y="0" width="900" height="900" fill="#FFFFFF"></rect><g transform="translate(460.83281763075547 481.68376866864423)"><path d="M301.2 -358.2C371.5 -300 396.5 -187.2 379.3 -94.9C362.2 -2.7 302.9 69 254.3 140.9C205.7 212.8 167.8 284.9 104.3 324.6C40.7 364.3 -48.6 371.5 -126.1 344.2C-203.6 317 -269.4 255.2 -318.8 179.4C-368.2 103.5 -401.3 13.4 -405.7 -90.6C-410.1 -194.7 -385.8 -312.8 -313.4 -370.5C-241 -428.3 -120.5 -425.6 -2.5 -422.6C115.5 -419.6 231 -416.3 301.2 -358.2" fill="#8e90d7"></path></g></svg>
